<svg xmlns="http://www.w3.org/2000/svg" width="1529.7" height="500" viewBox="-703.7 -230 1529.7 500"><g fill="#FFF"><path d="M-439.7 86.1L-637.2-230h-54.5c-10.9 0-15.1 7.6-9.4 16.8L-568.5 3.2l.7 1.1 89.8 143.8 38.3-62zM-409.2 36.8c5.7-9.2 5.7-24.3 0-33.6l-134-216.5c-5.7-9.2-19.3-16.8-30.1-16.8h-55l193 308.9 26.1-42zM-521.4 93L-632 270h58.8c10.8 0 24.4-7.5 30.1-16.8l53.5-86.5c.2-.3.6-1 1.5-2.4l5.6-9.1-38.9-62.2zM-568.5 36.8l-132.6 216.4c-5.7 9.3-1.4 16.8 9.4 16.8h50.7l115.1-184.1-38.6-61.9c-.5 4.7-1.8 9.2-4 12.8z"/></g><g fill="#FFF"><path d="M261.5-88.9c0 22.3-6.1 39.5-18.3 51.6-12.2 12.1-29.3 18.1-51.4 18.1h-42.9v-133.6h45.9c21.3 0 37.7 5.5 49.3 16.4 11.6 11 17.4 26.8 17.4 47.5zm-37.2 1.3c0-12.2-2.4-21.3-7.2-27.2-4.8-5.9-12.1-8.9-21.9-8.9h-10.4v74.8h8c10.9 0 18.9-3.2 23.9-9.5s7.6-16.1 7.6-29.2zM321.6-17.4c-17.1 0-30.4-4.6-39.9-13.8-9.5-9.2-14.2-22.2-14.2-39.2 0-17.5 4.4-30.9 13.2-40.3 8.8-9.3 21.3-14 37.5-14 15.5 0 27.4 4.1 35.9 12.2s12.7 19.9 12.7 35.1v15.9h-63.4c.2 5.8 2.3 10.3 6.3 13.6 4 3.3 9.3 4.9 16.2 4.9 6.2 0 12-.6 17.2-1.8 5.2-1.2 10.9-3.2 17-6.1V-25c-5.6 2.9-11.3 4.8-17.2 5.9-6 1.2-13 1.7-21.3 1.7zm-2.1-82.9c-4.2 0-7.7 1.3-10.5 4-2.8 2.6-4.5 6.8-5 12.5h30.5c-.1-5-1.5-9-4.2-12-2.6-3-6.2-4.5-10.8-4.5zM402.6-19.2l-39.2-103.5h37l17.4 61.2c.1.3.2.8.4 1.5s.4 1.6.5 2.6c.2 1 .3 2.1.5 3.2s.2 2.2.2 3.1h.6c0-3.2.5-6.6 1.6-10.3l18.2-61.4h36.9l-39 103.6h-35.1zM515.4-19.2h-35.3v-133.6h78.4v29h-43.1v25.5h39.7v29h-39.7v50.1zM616.6-17.4c-17.1 0-30.4-4.6-39.9-13.8-9.5-9.2-14.2-22.2-14.2-39.2 0-17.5 4.4-30.9 13.2-40.3 8.8-9.3 21.3-14 37.5-14 15.5 0 27.4 4.1 35.9 12.2 8.4 8.1 12.7 19.9 12.7 35.1v15.9h-63.4c.3 5.8 2.3 10.3 6.3 13.6 4 3.3 9.3 4.9 16.2 4.9 6.2 0 12-.6 17.2-1.8 5.2-1.2 10.9-3.2 17-6.1V-25c-5.6 2.9-11.3 4.8-17.2 5.9-6 1.2-13.1 1.7-21.3 1.7zm-2.1-82.9c-4.2 0-7.7 1.3-10.5 4-2.8 2.6-4.5 6.8-5 12.5h30.5c-.1-5-1.5-9-4.2-12s-6.3-4.5-10.8-4.5zM750-51c0 11.1-3.8 19.5-11.3 25.1-7.5 5.7-18.3 8.5-32.3 8.5-7.6 0-14.2-.4-19.9-1.2-5.6-.8-11.4-2.3-17.2-4.5v-28.6c5.5 2.4 11.5 4.4 18.1 6 6.6 1.6 12.4 2.4 17.5 2.4 7.7 0 11.5-1.8 11.5-5.3 0-1.8-1.1-3.5-3.2-4.9-2.1-1.4-8.4-4.2-18.7-8.4-9.4-3.9-16-8.3-19.8-13.3-3.7-5-5.6-11.2-5.6-18.9 0-9.6 3.7-17.1 11.1-22.5 7.4-5.4 17.8-8 31.3-8 6.8 0 13.1.8 19.1 2.2 5.9 1.5 12.1 3.7 18.5 6.5l-9.6 23c-4.7-2.1-9.7-3.9-15-5.4-5.3-1.5-9.5-2.2-12.9-2.2-5.8 0-8.7 1.4-8.7 4.3 0 1.8 1 3.3 3 4.5 2 1.3 7.9 3.8 17.5 7.6 7.2 3 12.5 5.9 16.1 8.8 3.5 2.9 6.1 6.2 7.8 10.1 1.9 3.9 2.7 8.6 2.7 14.2zM808.9-45.6c4.8 0 10.5-1.2 17.2-3.6v26.1c-4.8 2.1-9.3 3.6-13.7 4.4-4.3.9-9.4 1.3-15.2 1.3-11.9 0-20.5-2.9-25.8-8.8-5.3-5.9-7.9-14.9-7.9-27.1V-96h-12.4v-14.5l15.8-11.2 9.2-21.8h23.2v20.8h25.2V-96h-25.2v40.3c0 6.7 3.2 10.1 9.6 10.1z"/></g><g fill="#FFF"><path d="M-202 160.4h-85.4v-15.3l32.5-32.7c9.6-9.8 16-16.8 19.1-20.9 3.1-4.1 5.4-8 6.9-11.6 1.4-3.6 2.2-7.5 2.2-11.6 0-5.7-1.7-10.2-5.1-13.5-3.4-3.3-8.2-4.9-14.2-4.9-4.8 0-9.5.9-14 2.7-4.5 1.8-9.7 5-15.6 9.6l-10.9-13.4c7-5.9 13.8-10.1 20.4-12.6 6.6-2.5 13.6-3.7 21.1-3.7 11.7 0 21.1 3.1 28.2 9.2 7.1 6.1 10.6 14.4 10.6 24.7 0 5.7-1 11.1-3.1 16.2s-5.2 10.4-9.4 15.8-11.3 12.8-21.1 22l-21.9 21.2v.9h59.8c-.1.1-.1 17.9-.1 17.9zM-111.9 97.4c0 21.9-3.5 38.2-10.6 48.8-7 10.6-17.8 16-32.3 16-14 0-24.7-5.5-31.9-16.5-7.2-11-10.9-27.1-10.9-48.3 0-22.2 3.5-38.6 10.6-49.2 7-10.5 17.8-15.8 32.2-15.8 14.1 0 24.7 5.5 32 16.5 7.3 11.1 10.9 27.3 10.9 48.5zm-65.1 0c0 17.2 1.8 29.4 5.3 36.8 3.5 7.3 9.2 11 16.9 11s13.4-3.7 17-11.2c3.6-7.5 5.4-19.7 5.4-36.6 0-16.9-1.8-29.1-5.4-36.7-3.6-7.6-9.3-11.3-17-11.3s-13.4 3.7-16.9 11.1c-3.5 7.5-5.3 19.8-5.3 36.9zM-47.7 160.4h-20.2V79.1c0-9.7.2-17.4.7-23.1-1.3 1.4-3 2.9-4.9 4.6-1.9 1.7-8.4 6.9-19.4 15.9l-10.2-12.8 37.1-29.1h16.9v125.8zM25.8 81.7c12.7 0 22.7 3.4 30.2 10.1 7.4 6.7 11.1 15.9 11.1 27.5 0 13.4-4.2 24-12.6 31.5-8.4 7.6-20.4 11.3-35.9 11.3-14.1 0-25.1-2.3-33.2-6.8V137c4.7 2.6 10 4.7 16 6.1 6 1.4 11.6 2.2 16.8 2.2 9.1 0 16.1-2 20.9-6.1 4.8-4.1 7.1-10.1 7.1-17.9 0-15.1-9.6-22.6-28.8-22.6-2.7 0-6 .3-10 .8-4 .6-7.4 1.2-10.4 1.9l-9-5.3 4.8-61.5h65.5v18H10.6l-2.8 31c2-.3 4.5-.7 7.4-1.2s6.4-.7 10.6-.7zM190 126.2c0 11.2-4 20-12.1 26.4-8.1 6.4-19.3 9.6-33.5 9.6-14.3 0-25.9-2.2-35-6.6v-19.5c5.7 2.7 11.8 4.8 18.3 6.4 6.5 1.6 12.5 2.3 18.1 2.3 8.2 0 14.2-1.6 18.1-4.6 3.9-3.1 5.8-7.3 5.8-12.5 0-4.7-1.8-8.7-5.4-12-3.6-3.3-10.9-7.2-22.1-11.6-11.5-4.6-19.6-10-24.3-16-4.7-6-7.1-13.2-7.1-21.5 0-10.5 3.7-18.8 11.2-24.8 7.5-6 17.5-9 30.1-9 12.1 0 24.1 2.6 36 7.9l-6.6 16.8c-11.2-4.7-21.2-7.1-30-7.1-6.7 0-11.7 1.4-15.2 4.3s-5.2 6.7-5.2 11.5c0 3.3.7 6.1 2.1 8.4 1.4 2.3 3.6 4.5 6.8 6.6 3.2 2.1 8.8 4.8 17.1 8.2 9.2 3.9 16 7.4 20.3 10.8 4.3 3.3 7.5 7.1 9.5 11.3 2.1 4.1 3.1 9 3.1 14.7zM243.3 162.2c-14.8 0-26.4-4.3-34.8-13S196 128.6 196 113.5c0-15.6 3.9-27.8 11.6-36.7s18.4-13.4 32-13.4c12.6 0 22.5 3.8 29.8 11.5 7.3 7.6 11 18.2 11 31.6v10.9h-63.5c.3 9.3 2.8 16.4 7.5 21.3 4.7 5 11.3 7.5 19.9 7.5 5.6 0 10.9-.5 15.7-1.6 4.9-1.1 10.1-2.8 15.6-5.3v16.5c-4.9 2.4-9.9 4-15 5-5 .9-10.8 1.4-17.3 1.4zm-3.7-83.5c-6.4 0-11.6 2-15.5 6.1-3.9 4.1-6.2 10-6.9 17.8h43.3c-.1-7.9-2-13.8-5.7-17.9-3.7-3.9-8.8-6-15.2-6zM352.4 160.4l-4-13.3h-.7c-4.6 5.8-9.2 9.8-13.9 11.8-4.7 2.1-10.6 3.2-17.9 3.2-9.4 0-16.7-2.5-21.9-7.6-5.3-5-7.9-12.2-7.9-21.5 0-9.8 3.6-17.2 11-22.2 7.3-5 18.4-7.7 33.3-8.2l16.5-.5V97c0-6.1-1.4-10.6-4.3-13.7-2.8-3-7.3-4.5-13.2-4.5-4.9 0-9.6.7-14.1 2.2-4.5 1.4-8.8 3.1-12.9 5.1l-6.6-14.5c5.2-2.7 10.8-4.7 17-6.2 6.1-1.4 12-2.1 17.4-2.1 12.1 0 21.3 2.6 27.4 7.9 6.2 5.3 9.3 13.6 9.3 24.9v64.2h-14.5zm-30.1-13.8c7.3 0 13.3-2 17.7-6.2s6.7-9.9 6.7-17.3v-8.3l-12.2.5c-9.5.3-16.5 1.9-20.8 4.8-4.4 2.9-6.5 7.2-6.5 13.1 0 4.3 1.3 7.5 3.8 9.9 2.4 2.4 6.2 3.5 11.3 3.5zM448.6 133.3c0 9.3-3.4 16.5-10.2 21.4-6.8 5-16.5 7.5-29.1 7.5-12.7 0-22.9-1.9-30.6-5.8v-17.5c11.2 5.2 21.6 7.8 31.3 7.8 12.5 0 18.7-3.8 18.7-11.3 0-2.4-.7-4.4-2.1-6-1.4-1.6-3.6-3.3-6.8-5s-7.6-3.7-13.2-5.9c-11-4.3-18.4-8.5-22.3-12.8-3.9-4.3-5.8-9.8-5.8-16.5 0-8.2 3.3-14.5 9.9-19 6.6-4.5 15.5-6.8 26.9-6.8 11.2 0 21.8 2.3 31.8 6.8l-6.6 15.3c-10.3-4.3-18.9-6.4-25.9-6.4-10.7 0-16 3-16 9.1 0 3 1.4 5.5 4.2 7.6 2.8 2.1 8.9 4.9 18.2 8.5 7.9 3 13.6 5.8 17.2 8.4 3.5 2.5 6.2 5.5 7.9 8.8 1.7 3.2 2.5 7.2 2.5 11.8zM544.5 112.6c0 15.6-4 27.7-12 36.5-8 8.7-19.1 13.1-33.4 13.1-8.9 0-16.8-2-23.6-6s-12.1-9.8-15.8-17.3-5.5-16.3-5.5-26.2c0-15.5 4-27.5 11.9-36.2 7.9-8.7 19.1-13 33.5-13 13.8 0 24.7 4.4 32.8 13.3 8.1 8.8 12.1 20.8 12.1 35.8zm-69.4 0c0 22 8.1 33 24.4 33 16.1 0 24.1-11 24.1-33 0-21.8-8.1-32.7-24.3-32.7-8.5 0-14.7 2.8-18.5 8.5-3.8 5.6-5.7 13.7-5.7 24.2zM641 160.4h-20.3v-58.6c0-7.3-1.5-12.8-4.4-16.5-3-3.6-7.7-5.4-14.1-5.4-8.6 0-14.8 2.5-18.8 7.6s-5.9 13.5-5.9 25.4v47.5h-20.3V65.1H573l2.8 12.5h1c2.9-4.5 7-8 12.2-10.5 5.3-2.5 11.1-3.7 17.6-3.7 22.9 0 34.3 11.6 34.3 34.9l.1 62.1z"/></g><g fill="#FFF"><path d="M-241.3-94.3h57.7v72c-15.7 5.4-32.9 8-51.6 8-20.6 0-36.5-6-47.8-17.9-11.2-11.9-16.9-29-16.9-51.1 0-21.6 6.2-38.3 18.5-50.4 12.3-12 29.5-18 51.7-18 8.4 0 16.3.8 23.8 2.4 7.5 1.6 14 3.6 19.5 6l-11.4 28.3c-9.6-4.8-20.2-7.1-31.7-7.1-10.5 0-18.7 3.4-24.5 10.3-5.8 6.8-8.6 16.6-8.6 29.4 0 12.5 2.6 22 7.8 28.6 5.2 6.6 12.7 9.8 22.5 9.8 5.4 0 10.3-.5 14.8-1.5v-20.9h-23.9l.1-27.9zM-54.2-85.7c0 22.3-6.1 39.5-18.4 51.5s-29.5 18.1-51.8 18.1h-43.2v-133.6h46.3c21.4 0 38 5.5 49.7 16.4 11.6 11 17.4 26.9 17.4 47.6zm-37.5 1.3c0-12.2-2.4-21.3-7.3-27.2-4.9-5.9-12.2-8.9-22.1-8.9h-10.5v74.9h8c11 0 19-3.2 24.1-9.5 5.3-6.5 7.8-16.2 7.8-29.3zM12.2-94.3h57.7v72c-15.7 5.4-32.9 8-51.6 8-20.6 0-36.5-6-47.8-17.9-11.2-11.9-16.9-29-16.9-51.1 0-21.6 6.2-38.3 18.5-50.4 12.3-12 29.5-18 51.7-18 8.4 0 16.3.8 23.8 2.4s14 3.6 19.5 6L55.7-115c-9.6-4.8-20.2-7.1-31.7-7.1-10.5 0-18.7 3.4-24.5 10.3-5.8 6.8-8.6 16.6-8.6 29.4 0 12.5 2.6 22 7.8 28.6S11.4-44 21.2-44c5.4 0 10.3-.5 14.8-1.5v-20.9H12.2v-27.9z"/></g></svg>